<svg xmlns="http://www.w3.org/2000/svg" xmlns:xlink="http://www.w3.org/1999/xlink" xmlns:svgjs="http://svgjs.dev/svgjs" width="1920" height="1080" preserveAspectRatio="none" viewBox="0 0 1920 1080"><g mask="url(&quot;#SvgjsMask1393&quot;)" fill="none"><rect width="1920" height="1080" x="0" y="0" fill="rgba(232, 232, 232, 1)"></rect><path d="M0 0L862.42 0L0 139.07z" fill="rgba(255, 255, 255, .1)"></path><path d="M0 139.07L862.42 0L1221.9299999999998 0L0 451.29z" fill="rgba(255, 255, 255, .075)"></path><path d="M0 451.29L1221.9299999999998 0L1618.58 0L0 695.48z" fill="rgba(255, 255, 255, .05)"></path><path d="M0 695.48L1618.58 0L1797.3 0L0 926.35z" fill="rgba(255, 255, 255, .025)"></path><path d="M1920 1080L1086.5700000000002 1080L1920 586.29z" fill="rgba(0, 0, 0, .1)"></path><path d="M1920 586.29L1086.5700000000002 1080L747.7100000000002 1080L1920 320.21z" fill="rgba(0, 0, 0, .075)"></path><path d="M1920 320.21000000000004L747.71 1080L285.42 1080L1920 262.50000000000006z" fill="rgba(0, 0, 0, .05)"></path><path d="M1920 262.5L285.4200000000001 1080L198.72000000000008 1080L1920 77.75z" fill="rgba(0, 0, 0, .025)"></path></g><defs><mask id="SvgjsMask1393"><rect width="1920" height="1080" fill="#ffffff"></rect></mask></defs></svg>